<mxfile host="app.diagrams.net" modified="2021-10-26T08:36:23.737Z" agent="5.0 (Windows NT 10.0; Win64; x64) AppleWebKit/537.36 (KHTML, like Gecko) Chrome/95.0.4638.54 Safari/537.36" etag="HwiGTlnUVcm_8zqwrmOX" version="15.5.9" type="github">
  <diagram id="cXGQUIpQxS_fL44lwIFH" name="Page-1">
    <mxGraphModel dx="1422" dy="804" grid="1" gridSize="10" guides="1" tooltips="1" connect="1" arrows="1" fold="1" page="1" pageScale="1" pageWidth="850" pageHeight="1100" background="#F1FAEE" math="0" shadow="0">
      <root>
        <mxCell id="0" />
        <mxCell id="1" parent="0" />
        <mxCell id="nOvAloDPaUvF_4_PYu3U-1" value="Liverpool copy" style="whiteSpace=wrap;html=1;fillColor=#A8DADC;strokeColor=#457B9D;fontColor=#1D3557;rounded=1;" parent="1" vertex="1">
          <mxGeometry x="480" y="190" width="120" height="60" as="geometry" />
        </mxCell>
        <mxCell id="nOvAloDPaUvF_4_PYu3U-2" value="London copy" style="whiteSpace=wrap;html=1;fillColor=#A8DADC;strokeColor=#457B9D;fontColor=#1D3557;rounded=1;" parent="1" vertex="1">
          <mxGeometry x="480" y="310" width="120" height="60" as="geometry" />
        </mxCell>
        <mxCell id="nOvAloDPaUvF_4_PYu3U-3" value="Penzance copy" style="whiteSpace=wrap;html=1;fillColor=#A8DADC;strokeColor=#457B9D;fontColor=#1D3557;rounded=1;" parent="1" vertex="1">
          <mxGeometry x="480" y="441" width="120" height="60" as="geometry" />
        </mxCell>
        <mxCell id="nOvAloDPaUvF_4_PYu3U-4" value="End copy" style="whiteSpace=wrap;html=1;fillColor=#A8DADC;strokeColor=#457B9D;fontColor=#1D3557;rounded=1;" parent="1" vertex="1">
          <mxGeometry x="480" y="554" width="120" height="60" as="geometry" />
        </mxCell>
        <mxCell id="U59eWr0mbI55YN9a3PPd-4" value="Task03" style="whiteSpace=wrap;html=1;fillColor=#A8DADC;strokeColor=#457B9D;fontColor=#1D3557;rounded=1;" parent="1" vertex="1">
          <mxGeometry x="280" y="431" width="120" height="80" as="geometry" />
        </mxCell>
        <mxCell id="nOvAloDPaUvF_4_PYu3U-6" value="Task01" style="whiteSpace=wrap;html=1;fillColor=#A8DADC;strokeColor=#457B9D;fontColor=#1D3557;rounded=1;" parent="1" vertex="1">
          <mxGeometry x="280" y="180" width="120" height="80" as="geometry" />
        </mxCell>
        <mxCell id="nOvAloDPaUvF_4_PYu3U-9" value="" style="html=1;shadow=0;dashed=0;align=center;verticalAlign=middle;shape=mxgraph.arrows2.arrow;dy=0.6;dx=40;direction=south;notch=0;fillColor=#A8DADC;strokeColor=#457B9D;fontColor=#1D3557;rounded=1;" parent="1" vertex="1">
          <mxGeometry x="340" y="271" width="14" height="20" as="geometry" />
        </mxCell>
        <mxCell id="nOvAloDPaUvF_4_PYu3U-5" value="Task02" style="whiteSpace=wrap;html=1;fillColor=#A8DADC;strokeColor=#457B9D;fontColor=#1D3557;rounded=1;" parent="1" vertex="1">
          <mxGeometry x="280" y="301" width="120" height="80" as="geometry" />
        </mxCell>
        <mxCell id="5xCC1GNIO-IaGWrvfCco-11" value="" style="endArrow=none;html=1;entryX=0;entryY=0.5;entryDx=0;entryDy=0;strokeWidth=2;fillColor=#A8DADC;strokeColor=#457B9D;fontColor=#1D3557;curved=1;labelBackgroundColor=#F1FAEE;" edge="1" parent="1" target="nOvAloDPaUvF_4_PYu3U-1">
          <mxGeometry width="50" height="50" relative="1" as="geometry">
            <mxPoint x="400" y="220" as="sourcePoint" />
            <mxPoint x="450" y="177" as="targetPoint" />
          </mxGeometry>
        </mxCell>
        <mxCell id="5xCC1GNIO-IaGWrvfCco-12" value="" style="endArrow=none;html=1;entryX=0;entryY=0.5;entryDx=0;entryDy=0;strokeWidth=4;fillColor=#A8DADC;strokeColor=#457B9D;fontColor=#1D3557;curved=1;labelBackgroundColor=#F1FAEE;" edge="1" parent="1">
          <mxGeometry width="50" height="50" relative="1" as="geometry">
            <mxPoint x="400" y="342" as="sourcePoint" />
            <mxPoint x="480" y="342" as="targetPoint" />
          </mxGeometry>
        </mxCell>
        <mxCell id="5xCC1GNIO-IaGWrvfCco-13" value="" style="endArrow=none;html=1;entryX=0;entryY=0.5;entryDx=0;entryDy=0;strokeWidth=2;fillColor=#A8DADC;strokeColor=#457B9D;fontColor=#1D3557;curved=1;labelBackgroundColor=#F1FAEE;" edge="1" parent="1">
          <mxGeometry width="50" height="50" relative="1" as="geometry">
            <mxPoint x="400" y="340.5" as="sourcePoint" />
            <mxPoint x="480" y="340.5" as="targetPoint" />
          </mxGeometry>
        </mxCell>
        <mxCell id="5xCC1GNIO-IaGWrvfCco-14" value="" style="endArrow=none;html=1;entryX=0;entryY=0.5;entryDx=0;entryDy=0;strokeWidth=2;fillColor=#A8DADC;strokeColor=#457B9D;fontColor=#1D3557;curved=1;labelBackgroundColor=#F1FAEE;" edge="1" parent="1">
          <mxGeometry width="50" height="50" relative="1" as="geometry">
            <mxPoint x="401" y="472.5" as="sourcePoint" />
            <mxPoint x="481" y="472.5" as="targetPoint" />
          </mxGeometry>
        </mxCell>
        <mxCell id="5xCC1GNIO-IaGWrvfCco-16" value="" style="html=1;shadow=0;dashed=0;align=center;verticalAlign=middle;shape=mxgraph.arrows2.arrow;dy=0.6;dx=40;direction=south;notch=0;fillColor=#A8DADC;strokeColor=#457B9D;fontColor=#1D3557;rounded=1;" vertex="1" parent="1">
          <mxGeometry x="340" y="398.37" width="14" height="20" as="geometry" />
        </mxCell>
        <mxCell id="5xCC1GNIO-IaGWrvfCco-17" value="" style="html=1;shadow=0;dashed=0;align=center;verticalAlign=middle;shape=mxgraph.arrows2.arrow;dy=0.6;dx=40;direction=south;notch=0;fillColor=#A8DADC;strokeColor=#457B9D;fontColor=#1D3557;rounded=1;" vertex="1" parent="1">
          <mxGeometry x="534" y="154" width="14" height="20" as="geometry" />
        </mxCell>
        <mxCell id="5xCC1GNIO-IaGWrvfCco-18" value="" style="html=1;shadow=0;dashed=0;align=center;verticalAlign=middle;shape=mxgraph.arrows2.arrow;dy=0.6;dx=40;direction=south;notch=0;fillColor=#A8DADC;strokeColor=#457B9D;fontColor=#1D3557;rounded=1;" vertex="1" parent="1">
          <mxGeometry x="534" y="270.37" width="14" height="20" as="geometry" />
        </mxCell>
        <mxCell id="5xCC1GNIO-IaGWrvfCco-19" value="" style="html=1;shadow=0;dashed=0;align=center;verticalAlign=middle;shape=mxgraph.arrows2.arrow;dy=0.6;dx=40;direction=south;notch=0;fillColor=#A8DADC;strokeColor=#457B9D;fontColor=#1D3557;rounded=1;" vertex="1" parent="1">
          <mxGeometry x="535" y="394" width="14" height="20" as="geometry" />
        </mxCell>
        <mxCell id="5xCC1GNIO-IaGWrvfCco-20" value="" style="html=1;shadow=0;dashed=0;align=center;verticalAlign=middle;shape=mxgraph.arrows2.arrow;dy=0.6;dx=40;direction=south;notch=0;fillColor=#A8DADC;strokeColor=#457B9D;fontColor=#1D3557;rounded=1;" vertex="1" parent="1">
          <mxGeometry x="535" y="518.37" width="14" height="20" as="geometry" />
        </mxCell>
        <mxCell id="5xCC1GNIO-IaGWrvfCco-22" value="Code 01" style="whiteSpace=wrap;html=1;fillColor=#A8DADC;strokeColor=#457B9D;fontColor=#1D3557;rounded=1;" vertex="1" parent="1">
          <mxGeometry x="80" y="40" width="120" height="60" as="geometry" />
        </mxCell>
        <mxCell id="5xCC1GNIO-IaGWrvfCco-25" value="Code 03" style="whiteSpace=wrap;html=1;fillColor=#A8DADC;strokeColor=#457B9D;fontColor=#1D3557;rounded=1;" vertex="1" parent="1">
          <mxGeometry x="80" y="200" width="120" height="60" as="geometry" />
        </mxCell>
        <mxCell id="5xCC1GNIO-IaGWrvfCco-26" value="Code 04" style="whiteSpace=wrap;html=1;fillColor=#A8DADC;strokeColor=#457B9D;fontColor=#1D3557;rounded=1;" vertex="1" parent="1">
          <mxGeometry x="80" y="280" width="120" height="60" as="geometry" />
        </mxCell>
        <mxCell id="5xCC1GNIO-IaGWrvfCco-27" value="Code 05" style="whiteSpace=wrap;html=1;fillColor=#A8DADC;strokeColor=#457B9D;fontColor=#1D3557;rounded=1;" vertex="1" parent="1">
          <mxGeometry x="80" y="358.37" width="120" height="60" as="geometry" />
        </mxCell>
        <mxCell id="5xCC1GNIO-IaGWrvfCco-28" value="Code 06" style="whiteSpace=wrap;html=1;fillColor=#A8DADC;strokeColor=#457B9D;fontColor=#1D3557;rounded=1;" vertex="1" parent="1">
          <mxGeometry x="80" y="441" width="120" height="60" as="geometry" />
        </mxCell>
        <mxCell id="5xCC1GNIO-IaGWrvfCco-29" value="Code 07" style="whiteSpace=wrap;html=1;fillColor=#A8DADC;strokeColor=#457B9D;fontColor=#1D3557;rounded=1;" vertex="1" parent="1">
          <mxGeometry x="80" y="520" width="120" height="60" as="geometry" />
        </mxCell>
        <mxCell id="5xCC1GNIO-IaGWrvfCco-30" value="" style="endArrow=none;html=1;strokeColor=#457B9D;strokeWidth=2;entryX=1;entryY=0.5;entryDx=0;entryDy=0;exitX=0;exitY=0.5;exitDx=0;exitDy=0;fontColor=#1D3557;curved=1;labelBackgroundColor=#F1FAEE;" edge="1" parent="1" source="nOvAloDPaUvF_4_PYu3U-6" target="5xCC1GNIO-IaGWrvfCco-22">
          <mxGeometry width="50" height="50" relative="1" as="geometry">
            <mxPoint x="400" y="270" as="sourcePoint" />
            <mxPoint x="450" y="220" as="targetPoint" />
          </mxGeometry>
        </mxCell>
        <mxCell id="5xCC1GNIO-IaGWrvfCco-31" value="" style="endArrow=none;html=1;strokeColor=#457B9D;strokeWidth=2;entryX=1;entryY=0.5;entryDx=0;entryDy=0;exitX=0;exitY=0.5;exitDx=0;exitDy=0;fontColor=#1D3557;curved=1;labelBackgroundColor=#F1FAEE;" edge="1" parent="1" source="nOvAloDPaUvF_4_PYu3U-6">
          <mxGeometry width="50" height="50" relative="1" as="geometry">
            <mxPoint x="287" y="224" as="sourcePoint" />
            <mxPoint x="200" y="150" as="targetPoint" />
          </mxGeometry>
        </mxCell>
        <mxCell id="5xCC1GNIO-IaGWrvfCco-33" value="Liverpool copy" style="whiteSpace=wrap;html=1;fillColor=#A8DADC;strokeColor=#457B9D;fontColor=#1D3557;rounded=1;" vertex="1" parent="1">
          <mxGeometry x="480" y="81" width="120" height="60" as="geometry" />
        </mxCell>
        <mxCell id="5xCC1GNIO-IaGWrvfCco-35" value="" style="endArrow=none;html=1;strokeColor=#457B9D;strokeWidth=2;entryX=1;entryY=0.5;entryDx=0;entryDy=0;exitX=0;exitY=0.5;exitDx=0;exitDy=0;fontColor=#1D3557;curved=1;labelBackgroundColor=#F1FAEE;" edge="1" parent="1" source="nOvAloDPaUvF_4_PYu3U-5" target="5xCC1GNIO-IaGWrvfCco-25">
          <mxGeometry width="50" height="50" relative="1" as="geometry">
            <mxPoint x="290" y="230" as="sourcePoint" />
            <mxPoint x="210" y="160" as="targetPoint" />
          </mxGeometry>
        </mxCell>
        <mxCell id="5xCC1GNIO-IaGWrvfCco-36" value="" style="endArrow=none;html=1;strokeColor=#457B9D;strokeWidth=2;entryX=1;entryY=0.5;entryDx=0;entryDy=0;fontColor=#1D3557;curved=1;labelBackgroundColor=#F1FAEE;" edge="1" parent="1" target="5xCC1GNIO-IaGWrvfCco-26">
          <mxGeometry width="50" height="50" relative="1" as="geometry">
            <mxPoint x="280" y="340" as="sourcePoint" />
            <mxPoint x="210" y="240" as="targetPoint" />
          </mxGeometry>
        </mxCell>
        <mxCell id="5xCC1GNIO-IaGWrvfCco-37" value="" style="endArrow=none;html=1;strokeColor=#457B9D;strokeWidth=2;entryX=1;entryY=0.5;entryDx=0;entryDy=0;fontColor=#1D3557;curved=1;labelBackgroundColor=#F1FAEE;exitX=0;exitY=0.5;exitDx=0;exitDy=0;" edge="1" parent="1" source="U59eWr0mbI55YN9a3PPd-4" target="5xCC1GNIO-IaGWrvfCco-29">
          <mxGeometry width="50" height="50" relative="1" as="geometry">
            <mxPoint x="290" y="350" as="sourcePoint" />
            <mxPoint x="210" y="335" as="targetPoint" />
          </mxGeometry>
        </mxCell>
        <mxCell id="5xCC1GNIO-IaGWrvfCco-38" value="" style="endArrow=none;html=1;strokeColor=#457B9D;strokeWidth=2;entryX=1;entryY=0.5;entryDx=0;entryDy=0;fontColor=#1D3557;curved=1;labelBackgroundColor=#F1FAEE;" edge="1" parent="1" target="5xCC1GNIO-IaGWrvfCco-27">
          <mxGeometry width="50" height="50" relative="1" as="geometry">
            <mxPoint x="280" y="341" as="sourcePoint" />
            <mxPoint x="210" y="560" as="targetPoint" />
          </mxGeometry>
        </mxCell>
        <mxCell id="5xCC1GNIO-IaGWrvfCco-39" value="" style="endArrow=none;html=1;strokeColor=#457B9D;strokeWidth=2;entryX=1;entryY=0.5;entryDx=0;entryDy=0;fontColor=#1D3557;curved=1;labelBackgroundColor=#F1FAEE;" edge="1" parent="1" target="5xCC1GNIO-IaGWrvfCco-28">
          <mxGeometry width="50" height="50" relative="1" as="geometry">
            <mxPoint x="280" y="470" as="sourcePoint" />
            <mxPoint x="210" y="398.3699999999999" as="targetPoint" />
          </mxGeometry>
        </mxCell>
        <mxCell id="5xCC1GNIO-IaGWrvfCco-40" value="Code 02" style="whiteSpace=wrap;html=1;fillColor=#A8DADC;strokeColor=#457B9D;fontColor=#1D3557;rounded=1;" vertex="1" parent="1">
          <mxGeometry x="80" y="120" width="120" height="60" as="geometry" />
        </mxCell>
      </root>
    </mxGraphModel>
  </diagram>
</mxfile>
